<svg xmlns="http://www.w3.org/2000/svg" viewBox="0 0 48 48" width="48" height="48">
  
  <circle cx="24" cy="24" r="24" fill="#FA4D16"></circle>
  <g transform="translate(8.5, 9.6) scale(1.32)">
    <path fill="#FFFFFF" fill-rule="evenodd" d="M 7.438 3.113 C 7.438 3.019 7.54 2.959 7.621 3.006 L 20.234 10.318 C 20.315 10.365 20.315 10.485 20.234 10.532 L 7.621 17.845 C 7.54 17.892 7.438 17.832 7.438 17.738 L 7.438 3.113 Z M 9.766 2.084 C 9.668 2.026 9.709 1.874 9.822 1.874 L 16.452 1.874 C 16.572 1.874 16.683 1.938 16.742 2.043 L 20.036 7.798 C 20.094 7.897 19.983 8.008 19.883 7.95 L 9.764 2.084 L 9.766 2.084 Z M 5.569 16.26 C 5.569 16.375 5.418 16.416 5.36 16.315 L 2.079 10.584 C 2.019 10.481 2.019 10.353 2.079 10.248 L 5.36 4.516 C 5.418 4.418 5.569 4.456 5.569 4.572 L 5.569 16.257 L 5.569 16.26 Z M 20.026 13.059 C 20.083 12.961 19.972 12.849 19.872 12.907 L 9.79 18.752 C 9.692 18.81 9.732 18.962 9.845 18.962 L 16.45 18.962 C 16.57 18.962 16.68 18.897 16.74 18.793 L 20.023 13.061 L 20.026 13.059 Z M 23.373 10.977 C 23.571 10.631 23.571 10.207 23.373 9.861 L 18.048 0.563 C 17.85 0.216 17.479 0 17.081 0 L 6.44 0 C 6.042 0 5.671 0.214 5.473 0.563 L 0.149 9.861 C -0.05 10.207 -0.05 10.631 0.149 10.977 L 5.473 20.275 C 5.671 20.622 6.042 20.838 6.44 20.838 L 17.081 20.838 C 17.479 20.838 17.85 20.624 18.048 20.275 L 23.373 10.977 Z"></path>
  </g>
</svg>